<?xml version="1.0" encoding="utf-8"?>
<!-- Generator: Adobe Illustrator 26.4.1, SVG Export Plug-In . SVG Version: 6.00 Build 0)  -->
<svg version="1.1" id="Capa_1" xmlns="http://www.w3.org/2000/svg" xmlns:xlink="http://www.w3.org/1999/xlink" x="0px" y="0px"
	 viewBox="0 0 64 51.2" style="enable-background:new 0 0 64 51.2;" xml:space="preserve">
<g>
	<polygon points="43.1,0 17.6,0 14.9,2.7 16.8,4.6 18.7,2.7 42,2.7 52.9,13.6 30.4,36.1 7.8,13.6 9.1,12.3 7.2,10.3 4,13.6 
		30.4,39.9 56.7,13.6 	"/>
	<path d="M30.4,8.7C29.6,8.8,29,8.9,28.6,9s-1,0.2-1.7,0.4c-0.7,0.2-1.2,0.5-1.4,1c-0.2,0.5-0.3,1.1-0.3,1.7v20.7
		c0,1.9-0.4,3.6-1.1,5.2c-0.8,1.6-1.8,2.9-3.2,4c-1.4,1.1-2.9,1.9-4.5,2.4c-1.7,0.5-3.5,0.8-5.4,0.8c-3.3,0-5.9-0.8-8-2.4
		c-2-1.6-3-3.8-3-6.5c0-1.6,0.5-3,1.4-4.1c0.9-1.1,2.2-1.6,3.8-1.6c1.5,0,2.8,0.4,3.7,1.3s1.4,2,1.4,3.3c0,1.1-0.4,2.2-1.2,3.1
		c-0.8,1-1.7,1.8-2.7,2.7v0.3c0.2,0.4,0.5,0.7,1,0.9c0.5,0.2,1.1,0.4,1.6,0.4c2.1,0,3.8-0.8,5-2.3c1.2-1.5,1.8-3.8,1.8-6.9V12.3
		c0-0.6-0.1-1.2-0.3-1.6c-0.2-0.4-0.7-0.8-1.4-1.1C13.6,9.4,13,9.2,12.2,9c-0.8-0.2-1.4-0.3-1.9-0.3V6.6h20
		C30.4,6.6,30.4,8.7,30.4,8.7z"/>
	<path d="M64,38.8l-0.8,12.3H27.8v-2.1c0.6-0.1,1.4-0.1,2.2-0.3c0.9-0.1,1.4-0.2,1.7-0.3c0.7-0.3,1.1-0.6,1.4-1.1
		c0.3-0.5,0.4-1,0.4-1.7V18.5c0-0.7-0.1-1.2-0.3-1.6c-0.2-0.4-0.7-0.8-1.4-1.2c-0.6-0.3-1.2-0.5-2-0.6c-0.8-0.2-1.4-0.3-1.9-0.3
		v-2.1h21.1v2.1c-0.6,0.1-1.3,0.1-2,0.2c-0.8,0.1-1.5,0.2-2,0.4c-0.7,0.2-1.2,0.6-1.4,1.1C43.2,17,43,17.6,43,18.2v25.3
		c0,1.2,0.1,2.1,0.2,2.8c0.2,0.7,0.5,1.2,1,1.5c0.5,0.3,1.1,0.6,2,0.7c0.8,0.1,2,0.1,3.5,0.1c1.5,0,2.9-0.1,4.2-0.3
		c1.4-0.2,2.3-0.5,2.9-1.1c0.9-0.9,1.9-2.2,2.8-3.9c1-1.7,1.7-3.2,2.3-4.6L64,38.8L64,38.8z"/>
</g>
</svg>
