<?xml version="1.0" encoding="UTF-8"?>
<svg id="Capa_1" data-name="Capa 1" xmlns="http://www.w3.org/2000/svg" viewBox="0 0 935.56 748.13">
  <polygon points="630.51 0 256.89 0 217.9 38.99 245.96 67.05 273.32 39.69 614.08 39.69 772.83 198.44 443.7 527.57 114.57 198.44 133.71 179.29 105.65 151.24 58.45 198.44 443.7 583.69 828.95 198.44 630.51 0"/>
  <path d="M443.7,127.02c-10.3,1.29-19.05,2.58-26.26,3.87-7.21,1.29-15.32,3.09-24.33,5.41-10.56,2.84-17.32,7.86-20.27,15.07-2.96,7.22-4.44,15.46-4.44,24.73V478.3c0,27.83-5.6,53.33-16.8,76.52-11.2,23.19-26.58,42.64-46.15,58.35-19.83,15.46-41.97,27.12-66.42,34.98-24.46,7.85-50.59,11.78-78.39,11.78-48.14,0-86.95-11.58-116.43-34.75C14.73,602,0,570.21,0,529.79c0-23.94,6.76-43.76,20.27-59.47,13.52-15.7,32.11-23.56,55.8-23.56,22.4,0,40.22,6.56,53.48,19.69,13.26,13.13,19.89,29.35,19.89,48.66,0,16.48-5.73,31.73-17.19,45.76-11.46,14.03-24.52,26.97-39.19,38.81v5.02c2.32,5.15,7.35,9.53,15.1,13.13,7.74,3.61,15.62,5.41,23.62,5.41,30.98,0,55.3-11.08,72.99-33.23,17.68-22.16,26.53-55.65,26.53-100.48V179.97c0-9.27-1.42-17-4.27-23.19-2.85-6.18-9.7-11.59-20.56-16.23-7.76-3.35-17.13-6.19-28.13-8.5-10.99-2.32-20.12-3.99-27.36-5.03v-30.12H443.7v30.12Z"/>
  <path d="M935.56,567.6l-11.11,180.53H405.86v-30.95c9.26-.79,20.1-2.05,32.54-3.77,12.43-1.72,20.63-3.37,24.6-4.96,9.52-3.7,16.13-8.86,19.84-15.47,3.7-6.61,5.55-15.08,5.55-25.39V270.42c0-9.52-1.46-17.39-4.36-23.61-2.91-6.21-9.92-11.84-21.03-16.86-8.2-3.7-18.05-6.68-29.56-8.93-11.51-2.24-20.7-3.9-27.58-4.96v-30.95h309.09v30.95c-8.47,.79-18.45,1.92-29.96,3.37-11.51,1.46-21.5,3.51-29.96,6.15-10.32,3.44-17.2,8.8-20.63,16.07-3.44,7.28-5.16,15.54-5.16,24.8v370.19c0,17.46,1.19,31.21,3.57,41.26,2.38,10.06,7.01,17.46,13.89,22.22,6.87,5.03,16.47,8.27,28.77,9.72,12.3,1.46,29.29,2.18,50.98,2.18s41.72-1.25,61.7-3.77c19.97-2.51,34.32-8,43.05-16.47,13.49-13.49,27.31-32.47,41.46-56.94,14.15-24.46,25.46-46.88,33.93-67.25h28.96Z"/>
</svg>